<svg xmlns="http://www.w3.org/2000/svg" width="20" height="20.84"><path fill="#546d79" d="m11.18 18.15 6.4-4.4a.44.44 0 0 0 0-.73l-.7-.48 2.13-1.23a2.66 2.66 0 0 1-.17 4.26l-7.66 5.28ZM1.16 15.56A2.66 2.66 0 0 1 1 11.3l2.13 1.22-.71.49a.43.43 0 0 0-.2.37.43.43 0 0 0 .2.36l6.4 4.37v2.7Zm0-5.9a2.66 2.66 0 0 1 0-4.39L8.81 0v2.7l-6.4 4.4a.44.44 0 0 0 0 .73l6.4 4.37v2.7Zm10.02 2.54 6.4-4.4a.44.44 0 0 0 0-.73l-6.4-4.37V0l7.66 5.23a2.66 2.66 0 0 1 0 4.4l-7.66 5.26ZM9.5 10.05 6.68 8.1a1.02 1.02 0 0 1 0-1.69l2.71-1.86a1.03 1.03 0 0 1 1.17 0l2.82 1.95a1.02 1.02 0 0 1 0 1.69l-2.72 1.86a1.03 1.03 0 0 1-1.16 0Z"/></svg>